<?xml version="1.0" encoding="UTF-8"?>
<!DOCTYPE svg PUBLIC "-//W3C//DTD SVG 1.1//EN" "http://www.w3.org/Graphics/SVG/1.1/DTD/svg11.dtd">
<!-- Creator: CorelDRAW 2021 (64-Bit) -->
<svg xmlns="http://www.w3.org/2000/svg" xml:space="preserve" width="264.851mm" height="124.337mm" version="1.1" style="shape-rendering:geometricPrecision; text-rendering:geometricPrecision; image-rendering:optimizeQuality; fill-rule:evenodd; clip-rule:evenodd"
viewBox="0 0 25764.68 12095.54"
 xmlns:xlink="http://www.w3.org/1999/xlink"
 xmlns:xodm="http://www.corel.com/coreldraw/odm/2003">
 <defs>
  <style type="text/css">
   <![CDATA[
    .str1 {stroke:#33CC99;stroke-width:128.69;stroke-linecap:round;stroke-linejoin:round;stroke-miterlimit:22.9256}
    .str4 {stroke:#6699FF;stroke-width:128.69;stroke-linecap:round;stroke-linejoin:round;stroke-miterlimit:22.9256}
    .str2 {stroke:gray;stroke-width:128.69;stroke-linecap:round;stroke-linejoin:round;stroke-miterlimit:22.9256}
    .str3 {stroke:#FF6600;stroke-width:128.69;stroke-linecap:round;stroke-linejoin:round;stroke-miterlimit:22.9256}
    .str0 {stroke:#FF99CC;stroke-width:128.69;stroke-linecap:round;stroke-linejoin:round;stroke-miterlimit:22.9256}
    .fil0 {fill:none}
    .fil4 {fill:#33CC99}
    .fil3 {fill:gray}
    .fil1 {fill:gray;fill-rule:nonzero}
    .fil2 {fill:#FF6600;fill-rule:nonzero}
    .fnt0 {font-weight:bold;font-size:663.8px;font-family:'Calibri'}
   ]]>
  </style>
 </defs>
 <g id="Capa_x0020_1">
  <metadata id="CorelCorpID_0Corel-Layer"/>
  <g id="_2221387051328">
   <rect class="fil0 str0" x="788.38" y="1093.67" width="5289.95" height="10475.48" rx="870.06" ry="858.65"/>
   <rect class="fil0 str1" x="7070.54" y="1093.67" width="17905.78" height="10475.48" rx="1451.83" ry="423.29"/>
   <g>
    <rect class="fil0 str2" x="1424.66" y="1688.89" width="4017.37" height="1826.07"/>
    <rect class="fil0 str2" x="1424.66" y="5458.82" width="4017.37" height="1826.07"/>
    <rect class="fil0 str2" x="1424.66" y="9147.86" width="4017.37" height="1826.07"/>
    <g>
     <g>
      <path class="fil1" d="M2686.93 3514.97c0,-56.86 46.1,-102.96 102.96,-102.96 56.86,0 102.96,46.1 102.96,102.96l-205.92 0zm0 1661.75l0 -1661.75 205.92 0 0 1661.75 -205.92 0zm16.59 215.84l172.75 -112.08 -172.77 0.03 526.75 -812.57 172.79 112.01 -526.75 812.57 -172.77 0.04zm0 0l172.77 -0.04 -86.37 133.22 -86.4 -133.19zm-440.79 -868.61l86.37 -56.03 527.16 812.57 -172.75 112.08 -527.16 -812.57 86.37 -56.04zm630.12 652.78c0,56.86 -46.1,102.96 -102.96,102.96 -56.86,0 -102.96,-46.1 -102.96,-102.96l205.92 0z"/>
     </g>
     <g>
      <path class="fil1" d="M4179.77 5458.84c0,56.86 -46.1,102.96 -102.96,102.96 -56.86,0 -102.96,-46.1 -102.96,-102.96l205.92 0zm0 -1661.75l0 1661.75 -205.92 0 0 -1661.75 205.92 0zm-16.59 -215.84l-172.75 112.08 172.77 -0.03 -526.75 812.57 -172.79 -112.01 526.75 -812.57 172.77 -0.04zm0 0l-172.77 0.04 86.37 -133.22 86.4 133.19zm440.79 868.61l-86.37 56.03 -527.16 -812.57 172.75 -112.08 527.16 812.57 -86.37 56.04zm-630.12 -652.78c0,-56.86 46.1,-102.96 102.96,-102.96 56.86,0 102.96,46.1 102.96,102.96l-205.92 0z"/>
     </g>
    </g>
    <g id="_2221387054496">
     <g>
      <path class="fil1" d="M2686.93 7284.9c0,-56.86 46.1,-102.96 102.96,-102.96 56.86,0 102.96,46.1 102.96,102.96l-205.92 0zm0 1580.85l0 -1580.85 205.92 0 0 1580.85 -205.92 0zm16.59 215.84l172.75 -112.08 -172.77 0.03 526.75 -812.57 172.79 112.01 -526.75 812.57 -172.77 0.04zm0 0l172.77 -0.04 -86.37 133.22 -86.4 -133.19zm-440.79 -868.61l86.37 -56.03 527.16 812.57 -172.75 112.08 -527.16 -812.57 86.37 -56.04zm630.12 652.78c0,56.86 -46.1,102.96 -102.96,102.96 -56.86,0 -102.96,-46.1 -102.96,-102.96l205.92 0z"/>
     </g>
     <g>
      <path class="fil1" d="M4179.77 9147.87c0,56.86 -46.1,102.96 -102.96,102.96 -56.86,0 -102.96,-46.1 -102.96,-102.96l205.92 0zm0 -1580.85l0 1580.85 -205.92 0 0 -1580.85 205.92 0zm-16.59 -215.84l-172.75 112.08 172.77 -0.03 -526.75 812.57 -172.79 -112.01 526.75 -812.57 172.77 -0.04zm0 0l-172.77 0.04 86.37 -133.22 86.4 133.19zm440.79 868.61l-86.37 56.03 -527.16 -812.57 172.75 -112.08 527.16 812.57 -86.37 56.04zm-630.12 -652.78c0,-56.86 46.1,-102.96 102.96,-102.96 56.86,0 102.96,46.1 102.96,102.96l-205.92 0z"/>
     </g>
    </g>
   </g>
   <g>
    <path class="fil1" d="M5472.17 2704.9c-56.86,0 -102.96,-46.1 -102.96,-102.96 0,-56.86 46.1,-102.96 102.96,-102.96l0 205.92zm1960.1 0l-1960.1 0 0 -205.92 1960.1 0 0 205.92zm215.84 -16.59l-112.08 -172.75 0.03 172.77 -812.57 -526.75 112.01 -172.79 812.57 526.75 0.04 172.77zm0 0l-0.04 -172.77 133.22 86.37 -133.19 86.4zm-868.61 440.79l-56.03 -86.37 812.57 -527.16 112.08 172.75 -812.57 527.16 -56.04 -86.37zm652.78 -630.12c56.86,0 102.96,46.1 102.96,102.96 0,56.86 -46.1,102.96 -102.96,102.96l0 -205.92z"/>
   </g>
   <g>
    <g>
     <path class="fil2" d="M14257.22 2198.26c35.54,0 64.35,28.81 64.35,64.35 0,35.54 -28.81,64.35 -64.35,64.35l0 -128.7zm-2256.92 0l2256.92 0 0 128.7 -2256.92 0 0 -128.7zm-134.9 10.37l70.05 107.96 -0.02 -107.98 507.85 329.22 -70 107.99 -507.86 -329.21 -0.02 -107.98zm0 0l0.02 107.98 -83.26 -53.98 83.24 -54zm542.88 -275.5l35.02 53.99 -507.85 329.47 -70.05 -107.96 507.86 -329.48 35.02 53.98zm-407.98 393.83c-35.54,0 -64.35,-28.81 -64.35,-64.35 0,-35.54 28.81,-64.35 64.35,-64.35l0 128.7z"/>
    </g>
    <g>
     <path class="fil2" d="M11823.97 3005.61c-35.54,0 -64.35,-28.81 -64.35,-64.35 0,-35.54 28.81,-64.35 64.35,-64.35l0 128.7zm2256.92 0l-2256.92 0 0 -128.7 2256.92 0 0 128.7zm134.9 -10.37l-70.05 -107.96 0.02 107.98 -507.85 -329.22 70 -107.99 507.86 329.21 0.02 107.98zm0 0l-0.02 -107.98 83.26 53.98 -83.24 54zm-542.88 275.5l-35.02 -53.99 507.85 -329.47 70.05 107.96 -507.86 329.48 -35.02 -53.98zm407.98 -393.83c35.54,0 64.35,28.81 64.35,64.35 0,35.54 -28.81,64.35 -64.35,64.35l0 -128.7z"/>
    </g>
   </g>
   <rect class="fil0 str3" x="7793.84" y="1688.89" width="4017.37" height="1826.07"/>
   <rect class="fil0 str3" x="14257.22" y="1688.89" width="4017.37" height="1826.07"/>
   <g>
    <path class="fil1" d="M5472.17 10163.86c-56.86,0 -102.96,-46.1 -102.96,-102.96 0,-56.86 46.1,-102.96 102.96,-102.96l0 205.92zm1960.1 0l-1960.1 0 0 -205.92 1960.1 0 0 205.92zm215.84 -16.59l-112.08 -172.75 0.03 172.77 -812.57 -526.75 112.01 -172.79 812.57 526.75 0.04 172.77zm0 0l-0.04 -172.77 133.22 86.37 -133.19 86.4zm-868.61 440.79l-56.03 -86.37 812.57 -527.16 112.08 172.75 -812.57 527.16 -56.04 -86.37zm652.78 -630.12c56.86,0 102.96,46.1 102.96,102.96 0,56.86 -46.1,102.96 -102.96,102.96l0 -205.92z"/>
   </g>
   <g>
    <g>
     <path class="fil2" d="M14257.22 9657.22c35.54,0 64.35,28.81 64.35,64.35 0,35.54 -28.81,64.35 -64.35,64.35l0 -128.7zm-2256.92 0l2256.92 0 0 128.7 -2256.92 0 0 -128.7zm-134.9 10.37l70.05 107.96 -0.02 -107.98 507.85 329.22 -70 107.99 -507.86 -329.21 -0.02 -107.98zm0 0l0.02 107.98 -83.26 -53.98 83.24 -54zm542.88 -275.5l35.02 53.99 -507.85 329.47 -70.05 -107.96 507.86 -329.48 35.02 53.98zm-407.98 393.83c-35.54,0 -64.35,-28.81 -64.35,-64.35 0,-35.54 28.81,-64.35 64.35,-64.35l0 128.7z"/>
    </g>
    <g>
     <path class="fil2" d="M11823.97 10464.57c-35.54,0 -64.35,-28.81 -64.35,-64.35 0,-35.54 28.81,-64.35 64.35,-64.35l0 128.7zm2256.92 0l-2256.92 0 0 -128.7 2256.92 0 0 128.7zm134.9 -10.37l-70.05 -107.96 0.02 107.98 -507.85 -329.22 70 -107.99 507.86 329.21 0.02 107.98zm0 0l-0.02 -107.98 83.26 53.98 -83.24 54zm-542.88 275.5l-35.02 -53.99 507.85 -329.47 70.05 107.96 -507.86 329.48 -35.02 -53.98zm407.98 -393.83c35.54,0 64.35,28.81 64.35,64.35 0,35.54 -28.81,64.35 -64.35,64.35l0 -128.7z"/>
    </g>
   </g>
   <rect class="fil0 str3" x="7793.84" y="9147.86" width="4017.37" height="1826.07"/>
   <rect class="fil0 str3" x="14257.22" y="9147.86" width="4017.37" height="1826.07"/>
   <g>
    <g>
     <path class="fil2" d="M20695.65 9657.22c35.54,0 64.35,28.81 64.35,64.35 0,35.54 -28.81,64.35 -64.35,64.35l0 -128.7zm-2256.92 0l2256.92 0 0 128.7 -2256.92 0 0 -128.7zm-134.9 10.37l70.05 107.96 -0.02 -107.98 507.85 329.22 -70 107.99 -507.86 -329.21 -0.02 -107.98zm0 0l0.02 107.98 -83.26 -53.98 83.24 -54zm542.88 -275.5l35.02 53.99 -507.85 329.47 -70.05 -107.96 507.86 -329.48 35.02 53.98zm-407.98 393.83c-35.54,0 -64.35,-28.81 -64.35,-64.35 0,-35.54 28.81,-64.35 64.35,-64.35l0 128.7z"/>
    </g>
    <g>
     <path class="fil2" d="M18262.39 10464.57c-35.54,0 -64.35,-28.81 -64.35,-64.35 0,-35.54 28.81,-64.35 64.35,-64.35l0 128.7zm2256.92 0l-2256.92 0 0 -128.7 2256.92 0 0 128.7zm134.9 -10.37l-70.05 -107.96 0.02 107.98 -507.85 -329.22 70 -107.99 507.86 329.21 0.02 107.98zm0 0l-0.02 -107.98 83.26 53.98 -83.24 54zm-542.88 275.5l-35.02 -53.99 507.85 -329.47 70.05 107.96 -507.86 329.48 -35.02 -53.98zm407.98 -393.83c35.54,0 64.35,28.81 64.35,64.35 0,35.54 -28.81,64.35 -64.35,64.35l0 -128.7z"/>
    </g>
   </g>
   <rect class="fil0 str3" x="20695.65" y="9147.86" width="4017.37" height="1826.07"/>
   <text x="1331.04" y="977.75"  class="fil3 fnt0">Lista de Rubros</text>
   <text x="8485.54" y="977.75"  class="fil4 fnt0">Lista de Materiales de un Rubro</text>
  </g>
  <rect class="fil0 str4" x="64.35" y="64.35" width="25635.98" height="11966.84" rx="459.6" ry="459.6"/>
 </g>
</svg>
